<svg xmlns="http://www.w3.org/2000/svg" xmlns:xlink="http://www.w3.org/1999/xlink" contentStyleType="text/css" height="1545px" preserveAspectRatio="none" style="width:2236px;height:1545px;background:#FFFFFF;" version="1.1" viewBox="0 0 2236 1545" width="2236px" zoomAndPan="magnify"><title>MindTrace - Deployment / Component Diagram (as built)</title><defs/><g><text fill="#000000" font-family="DejaVu Sans" font-size="18" font-weight="bold" lengthAdjust="spacing" textLength="574.4619" x="823.851" y="26.708">MindTrace - Deployment / Component Diagram (as built)</text><!--cluster DEV--><g id="cluster_DEV"><polygon fill="#EEF5EE" points="310,57.9531,320,47.9531,806,47.9531,806,543.9531,796,553.9531,310,553.9531,310,57.9531" style="stroke:#181818;stroke-width:1.0;"/><line style="stroke:#181818;stroke-width:1.0;" x1="796" x2="806" y1="57.9531" y2="47.9531"/><line style="stroke:#181818;stroke-width:1.0;" x1="310" x2="796" y1="57.9531" y2="57.9531"/><line style="stroke:#181818;stroke-width:1.0;" x1="796" x2="796" y1="57.9531" y2="553.9531"/><text fill="#000000" font-family="DejaVu Sans" font-size="14" font-weight="bold" lengthAdjust="spacing" textLength="138.5234" x="484.7383" y="73.9482">MindTrace device</text><text fill="#000000" font-family="DejaVu Sans" font-size="14" font-weight="bold" lengthAdjust="spacing" textLength="270.5049" x="418.7476" y="90.2451">(ESP32-S3 N16R8, firmware 2.0.0)</text></g><!--cluster LAP--><g id="cluster_LAP"><polygon fill="#EEF5EE" points="16,627.9531,26,617.9531,1133,617.9531,1133,1088.9531,1123,1098.9531,16,1098.9531,16,627.9531" style="stroke:#181818;stroke-width:1.0;"/><line style="stroke:#181818;stroke-width:1.0;" x1="1123" x2="1133" y1="627.9531" y2="617.9531"/><line style="stroke:#181818;stroke-width:1.0;" x1="16" x2="1123" y1="627.9531" y2="627.9531"/><line style="stroke:#181818;stroke-width:1.0;" x1="1123" x2="1123" y1="627.9531" y2="1098.9531"/><text fill="#000000" font-family="DejaVu Sans" font-size="14" font-weight="bold" lengthAdjust="spacing" textLength="245.998" x="447.501" y="643.9482">Researcher's laptop (Windows)</text></g><!--cluster SRV--><g id="cluster_SRV"><polygon fill="#EEF5EE" points="1160,978.4531,1170,968.4531,1697,968.4531,1697,1518.9531,1687,1528.9531,1160,1528.9531,1160,978.4531" style="stroke:#181818;stroke-width:1.0;"/><line style="stroke:#181818;stroke-width:1.0;" x1="1687" x2="1697" y1="978.4531" y2="968.4531"/><line style="stroke:#181818;stroke-width:1.0;" x1="1160" x2="1687" y1="978.4531" y2="978.4531"/><line style="stroke:#181818;stroke-width:1.0;" x1="1687" x2="1687" y1="978.4531" y2="1528.9531"/><text fill="#000000" font-family="DejaVu Sans" font-size="14" font-weight="bold" lengthAdjust="spacing" textLength="269.9922" x="1289.5039" y="994.4482">Platform server (uvicorn / Docker)</text></g><!--cluster BRW--><g id="cluster_BRW"><polygon fill="#EEF5EE" points="1157,777.9531,1167,767.9531,1475,767.9531,1475,876.9531,1465,886.9531,1157,886.9531,1157,777.9531" style="stroke:#181818;stroke-width:1.0;"/><line style="stroke:#181818;stroke-width:1.0;" x1="1465" x2="1475" y1="777.9531" y2="767.9531"/><line style="stroke:#181818;stroke-width:1.0;" x1="1157" x2="1465" y1="777.9531" y2="777.9531"/><line style="stroke:#181818;stroke-width:1.0;" x1="1465" x2="1465" y1="777.9531" y2="886.9531"/><text fill="#000000" font-family="DejaVu Sans" font-size="14" font-weight="bold" lengthAdjust="spacing" textLength="64.8594" x="1279.5703" y="793.9482">Browser</text></g><!--entity MIC--><g id="elem_MIC"><rect fill="#F4F8FB" height="62.5938" rx="4" ry="4" style="stroke:#181818;stroke-width:0.5;" width="131.5195" x="638" y="210.9531"/><rect fill="#F4F8FB" height="10" style="stroke:#181818;stroke-width:0.5;" width="15" x="749.5195" y="215.9531"/><rect fill="#F4F8FB" height="2" style="stroke:#181818;stroke-width:0.5;" width="4" x="747.5195" y="217.9531"/><rect fill="#F4F8FB" height="2" style="stroke:#181818;stroke-width:0.5;" width="4" x="747.5195" y="221.9531"/><text fill="#000000" font-family="DejaVu Sans" font-size="14" lengthAdjust="spacing" textLength="91.5195" x="653" y="243.9482">INMP441 mic</text><text fill="#000000" font-family="DejaVu Sans" font-size="14" lengthAdjust="spacing" textLength="89.9951" x="653" y="260.2451">(I2S, 16 kHz)</text></g><!--entity TFT--><g id="elem_TFT"><rect fill="#F4F8FB" height="62.5938" rx="4" ry="4" style="stroke:#181818;stroke-width:0.5;" width="142.9834" x="383.5" y="474.9531"/><rect fill="#F4F8FB" height="10" style="stroke:#181818;stroke-width:0.5;" width="15" x="506.4834" y="479.9531"/><rect fill="#F4F8FB" height="2" style="stroke:#181818;stroke-width:0.5;" width="4" x="504.4834" y="481.9531"/><rect fill="#F4F8FB" height="2" style="stroke:#181818;stroke-width:0.5;" width="4" x="504.4834" y="485.9531"/><text fill="#000000" font-family="DejaVu Sans" font-size="14" lengthAdjust="spacing" textLength="102.9834" x="398.5" y="507.9482">ILI9341 screen</text><text fill="#000000" font-family="DejaVu Sans" font-size="14" lengthAdjust="spacing" textLength="97.5078" x="398.5" y="524.2451">(software SPI)</text></g><!--entity BTN--><g id="elem_BTN"><rect fill="#F4F8FB" height="46.2969" rx="4" ry="4" style="stroke:#181818;stroke-width:0.5;" width="154.5225" x="377.5" y="103.9531"/><rect fill="#F4F8FB" height="10" style="stroke:#181818;stroke-width:0.5;" width="15" x="512.0225" y="108.9531"/><rect fill="#F4F8FB" height="2" style="stroke:#181818;stroke-width:0.5;" width="4" x="510.0225" y="110.9531"/><rect fill="#F4F8FB" height="2" style="stroke:#181818;stroke-width:0.5;" width="4" x="510.0225" y="114.9531"/><text fill="#000000" font-family="DejaVu Sans" font-size="14" lengthAdjust="spacing" textLength="114.5225" x="392.5" y="136.9482">Button (GPIO16)</text></g><!--entity AT--><g id="elem_AT"><rect fill="#F4F8FB" height="46.2969" rx="4" ry="4" style="stroke:#181818;stroke-width:0.5;" width="170.6895" x="618.5" y="343.4531"/><rect fill="#F4F8FB" height="10" style="stroke:#181818;stroke-width:0.5;" width="15" x="769.1895" y="348.4531"/><rect fill="#F4F8FB" height="2" style="stroke:#181818;stroke-width:0.5;" width="4" x="767.1895" y="350.4531"/><rect fill="#F4F8FB" height="2" style="stroke:#181818;stroke-width:0.5;" width="4" x="767.1895" y="354.4531"/><text fill="#000000" font-family="DejaVu Sans" font-size="14" lengthAdjust="spacing" textLength="130.6895" x="633.5" y="376.4482">audioTask (core 0)</text></g><!--entity BT--><g id="elem_BT"><rect fill="#F4F8FB" height="46.2969" rx="4" ry="4" style="stroke:#181818;stroke-width:0.5;" width="178.0723" x="366" y="219.4531"/><rect fill="#F4F8FB" height="10" style="stroke:#181818;stroke-width:0.5;" width="15" x="524.0723" y="224.4531"/><rect fill="#F4F8FB" height="2" style="stroke:#181818;stroke-width:0.5;" width="4" x="522.0723" y="226.4531"/><rect fill="#F4F8FB" height="2" style="stroke:#181818;stroke-width:0.5;" width="4" x="522.0723" y="230.4531"/><text fill="#000000" font-family="DejaVu Sans" font-size="14" lengthAdjust="spacing" textLength="138.0723" x="381" y="252.4482">buttonTask (core 0)</text></g><!--entity LT--><g id="elem_LT"><rect fill="#F4F8FB" height="62.5938" rx="4" ry="4" style="stroke:#181818;stroke-width:0.5;" width="206.6123" x="571.5" y="474.9531"/><rect fill="#F4F8FB" height="10" style="stroke:#181818;stroke-width:0.5;" width="15" x="758.1123" y="479.9531"/><rect fill="#F4F8FB" height="2" style="stroke:#181818;stroke-width:0.5;" width="4" x="756.1123" y="481.9531"/><rect fill="#F4F8FB" height="2" style="stroke:#181818;stroke-width:0.5;" width="4" x="756.1123" y="485.9531"/><text fill="#000000" font-family="DejaVu Sans" font-size="14" lengthAdjust="spacing" textLength="116.6553" x="586.5" y="507.9482">linkTask (core 0)</text><text fill="#000000" font-family="DejaVu Sans" font-size="14" lengthAdjust="spacing" textLength="166.6123" x="586.5" y="524.2451">only code touching USB</text></g><!--entity UI--><g id="elem_UI"><rect fill="#F4F8FB" height="62.5938" rx="4" ry="4" style="stroke:#181818;stroke-width:0.5;" width="257.1436" x="326.5" y="334.9531"/><rect fill="#F4F8FB" height="10" style="stroke:#181818;stroke-width:0.5;" width="15" x="563.6436" y="339.9531"/><rect fill="#F4F8FB" height="2" style="stroke:#181818;stroke-width:0.5;" width="4" x="561.6436" y="341.9531"/><rect fill="#F4F8FB" height="2" style="stroke:#181818;stroke-width:0.5;" width="4" x="561.6436" y="345.9531"/><text fill="#000000" font-family="DejaVu Sans" font-size="14" lengthAdjust="spacing" textLength="119.0205" x="341.5" y="367.9482">loop() UI (core 1)</text><text fill="#000000" font-family="DejaVu Sans" font-size="14" lengthAdjust="spacing" textLength="217.1436" x="341.5" y="384.2451">screens IDLE/REC/SUMMARY/...</text></g><!--entity APP--><g id="elem_APP"><rect fill="#F4F8FB" height="62.5938" rx="4" ry="4" style="stroke:#181818;stroke-width:0.5;" width="192.4619" x="579" y="807.9531"/><rect fill="#F4F8FB" height="10" style="stroke:#181818;stroke-width:0.5;" width="15" x="751.4619" y="812.9531"/><rect fill="#F4F8FB" height="2" style="stroke:#181818;stroke-width:0.5;" width="4" x="749.4619" y="814.9531"/><rect fill="#F4F8FB" height="2" style="stroke:#181818;stroke-width:0.5;" width="4" x="749.4619" y="818.9531"/><text fill="#000000" font-family="DejaVu Sans" font-size="14" lengthAdjust="spacing" textLength="152.4619" x="594" y="840.9482">mindtrace_listener.py</text><text fill="#000000" font-family="DejaVu Sans" font-size="14" lengthAdjust="spacing" textLength="111.2002" x="594" y="857.2451">(MindTraceApp)</text></g><!--entity LINK--><g id="elem_LINK"><rect fill="#F4F8FB" height="62.5938" rx="4" ry="4" style="stroke:#181818;stroke-width:0.5;" width="194.5947" x="577.5" y="657.9531"/><rect fill="#F4F8FB" height="10" style="stroke:#181818;stroke-width:0.5;" width="15" x="752.0947" y="662.9531"/><rect fill="#F4F8FB" height="2" style="stroke:#181818;stroke-width:0.5;" width="4" x="750.0947" y="664.9531"/><rect fill="#F4F8FB" height="2" style="stroke:#181818;stroke-width:0.5;" width="4" x="750.0947" y="668.9531"/><text fill="#000000" font-family="DejaVu Sans" font-size="14" lengthAdjust="spacing" textLength="154.5947" x="592.5" y="690.9482">DeviceLink + protocol</text><text fill="#000000" font-family="DejaVu Sans" font-size="14" lengthAdjust="spacing" textLength="66.1172" x="592.5" y="707.2451">(pyserial)</text></g><!--entity SEG--><g id="elem_SEG"><rect fill="#F4F8FB" height="46.2969" rx="4" ry="4" style="stroke:#181818;stroke-width:0.5;" width="117.3691" x="724.5" y="1008.4531"/><rect fill="#F4F8FB" height="10" style="stroke:#181818;stroke-width:0.5;" width="15" x="821.8691" y="1013.4531"/><rect fill="#F4F8FB" height="2" style="stroke:#181818;stroke-width:0.5;" width="4" x="819.8691" y="1015.4531"/><rect fill="#F4F8FB" height="2" style="stroke:#181818;stroke-width:0.5;" width="4" x="819.8691" y="1019.4531"/><text fill="#000000" font-family="DejaVu Sans" font-size="14" lengthAdjust="spacing" textLength="77.3691" x="739.5" y="1041.4482">Segmenter</text></g><!--entity TR--><g id="elem_TR"><rect fill="#F4F8FB" height="62.5938" rx="4" ry="4" style="stroke:#181818;stroke-width:0.5;" width="239.9307" x="877" y="999.9531"/><rect fill="#F4F8FB" height="10" style="stroke:#181818;stroke-width:0.5;" width="15" x="1096.9307" y="1004.9531"/><rect fill="#F4F8FB" height="2" style="stroke:#181818;stroke-width:0.5;" width="4" x="1094.9307" y="1006.9531"/><rect fill="#F4F8FB" height="2" style="stroke:#181818;stroke-width:0.5;" width="4" x="1094.9307" y="1010.9531"/><text fill="#000000" font-family="DejaVu Sans" font-size="14" lengthAdjust="spacing" textLength="79.6523" x="892" y="1032.9482">Transcriber</text><text fill="#000000" font-family="DejaVu Sans" font-size="14" lengthAdjust="spacing" textLength="199.9307" x="892" y="1049.2451">(Audar-ASR / faster-whisper)</text></g><!--entity SPK--><g id="elem_SPK"><rect fill="#F4F8FB" height="62.5938" rx="4" ry="4" style="stroke:#181818;stroke-width:0.5;" width="200.8223" x="488.5" y="999.9531"/><rect fill="#F4F8FB" height="10" style="stroke:#181818;stroke-width:0.5;" width="15" x="669.3223" y="1004.9531"/><rect fill="#F4F8FB" height="2" style="stroke:#181818;stroke-width:0.5;" width="4" x="667.3223" y="1006.9531"/><rect fill="#F4F8FB" height="2" style="stroke:#181818;stroke-width:0.5;" width="4" x="667.3223" y="1010.9531"/><text fill="#000000" font-family="DejaVu Sans" font-size="14" lengthAdjust="spacing" textLength="108.083" x="503.5" y="1032.9482">SpeakerWorker</text><text fill="#000000" font-family="DejaVu Sans" font-size="14" lengthAdjust="spacing" textLength="160.8223" x="503.5" y="1049.2451">(ONNX speaker model)</text></g><!--entity FS--><g id="elem_FS"><path d="M217,979.9531 L255,979.9531 A6,6 0 0 1 259,983.9531 L266,1000.9531 L448.8359,1000.9531 A4,4 0 0 1 452.8359,1004.9531 L452.8359,1079.1406 A4,4 0 0 1 448.8359,1083.1406 L217,1083.1406 A4,4 0 0 1 213,1079.1406 L213,983.9531 A4,4 0 0 1 217,979.9531 " fill="#F1F1F1" style="stroke:#181818;stroke-width:0.5;"/><line style="stroke:#181818;stroke-width:0.5;" x1="213" x2="266" y1="1000.9531" y2="1000.9531"/><text fill="#000000" font-family="DejaVu Sans" font-size="14" lengthAdjust="spacing" textLength="63.834" x="223" y="1020.9482">sessions/</text><text fill="#000000" font-family="DejaVu Sans" font-size="14" lengthAdjust="spacing" textLength="144.6416" x="223" y="1037.2451">&lt;date&gt;/session.json</text><text fill="#000000" font-family="DejaVu Sans" font-size="14" lengthAdjust="spacing" textLength="209.8359" x="223" y="1053.542">notes/*.wav, full_session.wav,</text><text fill="#000000" font-family="DejaVu Sans" font-size="14" lengthAdjust="spacing" textLength="150.5068" x="223" y="1069.8389">report.html, .live.json</text></g><!--entity BR--><g id="elem_BR"><rect fill="#F4F8FB" height="62.5938" rx="4" ry="4" style="stroke:#181818;stroke-width:0.5;" width="184.9629" x="240.5" y="807.9531"/><rect fill="#F4F8FB" height="10" style="stroke:#181818;stroke-width:0.5;" width="15" x="405.4629" y="812.9531"/><rect fill="#F4F8FB" height="2" style="stroke:#181818;stroke-width:0.5;" width="4" x="403.4629" y="814.9531"/><rect fill="#F4F8FB" height="2" style="stroke:#181818;stroke-width:0.5;" width="4" x="403.4629" y="818.9531"/><text fill="#000000" font-family="DejaVu Sans" font-size="14" lengthAdjust="spacing" textLength="144.9629" x="255.5" y="840.9482">mindtrace_bridge.py</text><text fill="#000000" font-family="DejaVu Sans" font-size="14" lengthAdjust="spacing" textLength="47.9473" x="255.5" y="857.2451">(httpx)</text></g><!--entity TOK--><g id="elem_TOK"><path d="M32.5,1008.9531 L32.5,1053.5469 A4,4 0 0 0 36.5,1057.5469 L173.4063,1057.5469 A4,4 0 0 0 177.4063,1053.5469 L177.4063,1014.9531 L167.4063,1004.9531 L36.5,1004.9531 A4,4 0 0 0 32.5,1008.9531 " fill="#F1F1F1" style="stroke:#181818;stroke-width:0.5;"/><path d="M167.4063,1004.9531 L167.4063,1010.9531 A4,4 0 0 0 171.4063,1014.9531 L177.4063,1014.9531 " fill="#F1F1F1" style="stroke:#181818;stroke-width:0.5;"/><text fill="#000000" font-family="DejaVu Sans" font-size="14" lengthAdjust="spacing" textLength="96.0176" x="42.5" y="1027.9482">.bridge_token</text><text fill="#000000" font-family="DejaVu Sans" font-size="14" lengthAdjust="spacing" textLength="124.9063" x="42.5" y="1044.2451">.bridge_state.json</text></g><!--entity API--><g id="elem_API"><rect fill="#F4F8FB" height="46.2969" rx="4" ry="4" style="stroke:#181818;stroke-width:0.5;" width="194.3418" x="1214" y="1008.4531"/><rect fill="#F4F8FB" height="10" style="stroke:#181818;stroke-width:0.5;" width="15" x="1388.3418" y="1013.4531"/><rect fill="#F4F8FB" height="2" style="stroke:#181818;stroke-width:0.5;" width="4" x="1386.3418" y="1015.4531"/><rect fill="#F4F8FB" height="2" style="stroke:#181818;stroke-width:0.5;" width="4" x="1386.3418" y="1019.4531"/><text fill="#000000" font-family="DejaVu Sans" font-size="14" lengthAdjust="spacing" textLength="154.3418" x="1229" y="1041.4482">FastAPI app (main.py)</text></g><!--entity RT--><g id="elem_RT"><rect fill="#F4F8FB" height="62.5938" rx="4" ry="4" style="stroke:#181818;stroke-width:0.5;" width="246.8691" x="1181.5" y="1145.9531"/><rect fill="#F4F8FB" height="10" style="stroke:#181818;stroke-width:0.5;" width="15" x="1408.3691" y="1150.9531"/><rect fill="#F4F8FB" height="2" style="stroke:#181818;stroke-width:0.5;" width="4" x="1406.3691" y="1152.9531"/><rect fill="#F4F8FB" height="2" style="stroke:#181818;stroke-width:0.5;" width="4" x="1406.3691" y="1156.9531"/><text fill="#000000" font-family="DejaVu Sans" font-size="14" lengthAdjust="spacing" textLength="196.6016" x="1196.5" y="1178.9482">Routers: auth, experiments,</text><text fill="#000000" font-family="DejaVu Sans" font-size="14" lengthAdjust="spacing" textLength="206.8691" x="1196.5" y="1195.2451">sessions, bridge, teams, misc</text></g><!--entity SV--><g id="elem_SV"><rect fill="#F4F8FB" height="78.8906" rx="4" ry="4" style="stroke:#181818;stroke-width:0.5;" width="294.1807" x="1387" y="1269.9531"/><rect fill="#F4F8FB" height="10" style="stroke:#181818;stroke-width:0.5;" width="15" x="1661.1807" y="1274.9531"/><rect fill="#F4F8FB" height="2" style="stroke:#181818;stroke-width:0.5;" width="4" x="1659.1807" y="1276.9531"/><rect fill="#F4F8FB" height="2" style="stroke:#181818;stroke-width:0.5;" width="4" x="1659.1807" y="1280.9531"/><text fill="#000000" font-family="DejaVu Sans" font-size="14" lengthAdjust="spacing" textLength="207.334" x="1402" y="1302.9482">Services: users, experiments,</text><text fill="#000000" font-family="DejaVu Sans" font-size="14" lengthAdjust="spacing" textLength="201.0928" x="1402" y="1319.2451">mentions, sessions, insights,</text><text fill="#000000" font-family="DejaVu Sans" font-size="14" lengthAdjust="spacing" textLength="254.1807" x="1402" y="1335.542">ai, literature, teams, storage, mailer</text></g><!--entity DB--><g id="elem_DB"><path d="M1176.5,1448.4531 C1176.5,1438.4531 1266.0464,1438.4531 1266.0464,1438.4531 C1266.0464,1438.4531 1355.5928,1438.4531 1355.5928,1448.4531 L1355.5928,1490.0469 C1355.5928,1500.0469 1266.0464,1500.0469 1266.0464,1500.0469 C1266.0464,1500.0469 1176.5,1500.0469 1176.5,1490.0469 L1176.5,1448.4531 " fill="#FDF3E7" style="stroke:#181818;stroke-width:0.5;"/><path d="M1176.5,1448.4531 C1176.5,1458.4531 1266.0464,1458.4531 1266.0464,1458.4531 C1266.0464,1458.4531 1355.5928,1458.4531 1355.5928,1448.4531 " fill="none" style="stroke:#181818;stroke-width:0.5;"/><text fill="#000000" font-family="DejaVu Sans" font-size="14" lengthAdjust="spacing" textLength="92.292" x="1186.5" y="1475.4482">SQLite (WAL)</text><text fill="#000000" font-family="DejaVu Sans" font-size="14" lengthAdjust="spacing" textLength="159.0928" x="1186.5" y="1491.7451">data/mindtrace.sqlite3</text></g><!--entity AUD--><g id="elem_AUD"><path d="M1395,1425.9531 L1433,1425.9531 A6,6 0 0 1 1437,1429.9531 L1444,1446.9531 L1676.8477,1446.9531 A4,4 0 0 1 1680.8477,1450.9531 L1680.8477,1508.8438 A4,4 0 0 1 1676.8477,1512.8438 L1395,1512.8438 A4,4 0 0 1 1391,1508.8438 L1391,1429.9531 A4,4 0 0 1 1395,1425.9531 " fill="#F1F1F1" style="stroke:#181818;stroke-width:0.5;"/><line style="stroke:#181818;stroke-width:0.5;" x1="1391" x2="1444" y1="1446.9531" y2="1446.9531"/><text fill="#000000" font-family="DejaVu Sans" font-size="14" lengthAdjust="spacing" textLength="259.8477" x="1401" y="1466.9482">data/audio/u&lt;owner&gt;/&lt;session_id&gt;/</text><text fill="#000000" font-family="DejaVu Sans" font-size="14" lengthAdjust="spacing" textLength="209.2891" x="1401" y="1483.2451">notes/title.wav, note_NN.wav,</text><text fill="#000000" font-family="DejaVu Sans" font-size="14" lengthAdjust="spacing" textLength="113.1689" x="1401" y="1499.542">full_session.wav</text></g><!--entity SPA--><g id="elem_SPA"><rect fill="#F4F8FB" height="62.5938" rx="4" ry="4" style="stroke:#181818;stroke-width:0.5;" width="217.0986" x="1463.5" y="1145.9531"/><rect fill="#F4F8FB" height="10" style="stroke:#181818;stroke-width:0.5;" width="15" x="1660.5986" y="1150.9531"/><rect fill="#F4F8FB" height="2" style="stroke:#181818;stroke-width:0.5;" width="4" x="1658.5986" y="1152.9531"/><rect fill="#F4F8FB" height="2" style="stroke:#181818;stroke-width:0.5;" width="4" x="1658.5986" y="1156.9531"/><text fill="#000000" font-family="DejaVu Sans" font-size="14" lengthAdjust="spacing" textLength="177.0986" x="1478.5" y="1178.9482">React SPA (frontend/dist)</text><text fill="#000000" font-family="DejaVu Sans" font-size="14" lengthAdjust="spacing" textLength="125.084" x="1478.5" y="1195.2451">served by FastAPI</text></g><!--entity WEB--><g id="elem_WEB"><rect fill="#F4F8FB" height="62.5938" rx="4" ry="4" style="stroke:#181818;stroke-width:0.5;" width="284.5625" x="1173.5" y="807.9531"/><rect fill="#F4F8FB" height="10" style="stroke:#181818;stroke-width:0.5;" width="15" x="1438.0625" y="812.9531"/><rect fill="#F4F8FB" height="2" style="stroke:#181818;stroke-width:0.5;" width="4" x="1436.0625" y="814.9531"/><rect fill="#F4F8FB" height="2" style="stroke:#181818;stroke-width:0.5;" width="4" x="1436.0625" y="818.9531"/><text fill="#000000" font-family="DejaVu Sans" font-size="14" lengthAdjust="spacing" textLength="142.3379" x="1188.5" y="840.9482">React + react-query</text><text fill="#000000" font-family="DejaVu Sans" font-size="14" lengthAdjust="spacing" textLength="244.5625" x="1188.5" y="857.2451">(i18n ar/en, Web Speech dictation)</text></g><!--entity DS--><g id="elem_DS"><path d="M2106.3937,1455.2989 C2110.0467,1450.4314 2114.4244,1449.5669 2118.0297,1455.3509 C2120.9514,1449.8474 2126.4621,1448.3724 2130.2867,1454.3904 C2133.3977,1448.812 2136.7654,1448.9998 2140.472,1453.8063 C2144.5048,1446.9538 2148.5583,1448.5675 2152.8535,1453.5315 C2155.416,1448.0171 2158.942,1447.5345 2162.564,1452.5548 C2167.1487,1446.7026 2171.1858,1446.4082 2175.1217,1453.1992 C2177.8428,1448.0301 2182.9241,1448.5656 2185.3225,1453.5243 C2189.0843,1447.9781 2194.1108,1448.3265 2197.1632,1454.2563 C2200.91,1449.5628 2205.4332,1449.5441 2208.487,1455.0273 C2211.1986,1449.5826 2216.4709,1449.545 2219.3612,1454.8465 C2226.9468,1457.9902 2229.1639,1465.651 2222.5744,1471.5255 C2227.6974,1476.8219 2226.3635,1482.9424 2218.9691,1484.8525 C2215.9635,1490.2119 2210.5392,1491.4066 2206.7652,1485.6999 C2203.6242,1491.6411 2199.3807,1490.7733 2195.5413,1486.4646 C2191.7883,1491.0255 2188.2339,1492.4617 2184.3131,1486.6462 C2181.1539,1492.3846 2176.8254,1492.556 2173.1662,1487.146 C2170.2795,1491.5296 2166.3956,1490.7986 2163.6846,1486.9438 C2160.2304,1491.7467 2155.3499,1492.132 2152.1849,1486.6212 C2149.0449,1491.8008 2143.924,1492.0444 2140.549,1486.8857 C2137.8973,1492.0067 2132.7973,1493.2966 2129.5151,1487.5244 C2125.1694,1492.5011 2120.7383,1493.2937 2117.2512,1486.6205 C2113.8658,1490.8781 2110.4603,1490.3589 2107.7119,1485.9216 C2099.2378,1483.2475 2098.3416,1475.7088 2104.2432,1469.9188 C2097.6492,1464.116 2098.3356,1458.9463 2106.3937,1455.2989 " fill="#F1F1F1" style="stroke:#181818;stroke-width:0.5;"/><text fill="#000000" font-family="DejaVu Sans" font-size="14" lengthAdjust="spacing" textLength="97.7129" x="2113" y="1474.4482">DeepSeek API</text></g><!--entity LITC--><g id="elem_LITC"><path d="M1724.7405,1445.9699 C1730.3174,1439.6916 1738.1486,1438.9289 1741.2224,1448.5627 C1746.8237,1438.9904 1752.8779,1440.2146 1759.1337,1447.8828 C1763.0302,1438.6662 1769.0513,1439.0387 1775.4387,1445.2503 C1780.6599,1436.835 1787.5588,1437.9896 1792.2437,1445.8055 C1798.0306,1439.9817 1802.7854,1439.444 1806.9777,1447.4984 C1811.8746,1438.1682 1817.3716,1438.4864 1823.9289,1445.8081 C1828.5959,1440.2827 1834.6524,1440.6303 1838.3196,1447.0161 C1842.9333,1439.27 1850.3126,1438.6885 1854.7486,1447.1957 C1859.2691,1439.4255 1866.8837,1439.1128 1872.2407,1446.2116 C1876.7084,1438.6598 1881.7168,1439.6204 1887.0565,1445.23 C1893.4427,1436.9479 1900.1587,1439.1421 1904.0264,1447.7591 C1909.8968,1440.4628 1915.5322,1440.5998 1921.5101,1447.628 C1926.4564,1440.2856 1931.9073,1439.1804 1937.4347,1447.0184 C1942.2907,1440.4592 1946.7294,1441.0923 1951.5696,1447.0363 C1966.2655,1449.5777 1968.75,1459.8145 1961.816,1471.4383 C1971.5376,1482.6389 1965.9573,1491.0046 1953.9851,1494.9929 C1949.0182,1501.5094 1941.8756,1502.5169 1937.6447,1494.183 C1932.962,1502.7476 1925.4562,1504.5062 1919.1796,1495.8966 C1916.1436,1501.9983 1910.078,1503.2147 1905.696,1497.4225 C1900.8526,1504.9596 1895.57,1505.8096 1888.9515,1499.5818 C1884.3845,1507.4862 1878.5456,1506.8995 1873.0879,1500.5747 C1868.7855,1510.2707 1862.0508,1510.1835 1854.9648,1503.6909 C1850.2007,1510.268 1844.1595,1511.1492 1839.238,1503.8696 C1834.3195,1511.8332 1828.5801,1511.3226 1824.1848,1503.3746 C1818.4612,1510.4095 1811.7847,1509.1558 1807.3144,1501.8954 C1802.4647,1509.6322 1794.1291,1510.6939 1789.7811,1501.3794 C1784.6134,1507.2603 1777.2004,1506.0306 1774.9933,1498.189 C1769.8883,1506.9045 1761.4995,1505.3592 1757.5205,1497.0345 C1751.6241,1502.9719 1745.2799,1502.7708 1741.9519,1494.2658 C1736.2531,1501.3916 1731.6305,1501.0139 1726.8692,1493.3122 C1713.7862,1487.6453 1713.4849,1478.8099 1723.9664,1470.1852 C1712.3839,1461.9417 1712.5083,1453.4522 1724.7405,1445.9699 " fill="#F1F1F1" style="stroke:#181818;stroke-width:0.5;"/><text fill="#000000" font-family="DejaVu Sans" font-size="14" lengthAdjust="spacing" textLength="212.9053" x="1731.5" y="1465.9482">OpenAlex / Semantic Scholar /</text><text fill="#000000" font-family="DejaVu Sans" font-size="14" lengthAdjust="spacing" textLength="107.7002" x="1731.5" y="1482.2451">arXiv / Crossref</text></g><!--entity SMTP--><g id="elem_SMTP"><path d="M2003.0139,1454.8196 C2006.6759,1447.3053 2012.418,1447.4346 2016.9874,1453.9135 C2020.2956,1447.1436 2025.9289,1446.1432 2030.1014,1453.087 C2034.0506,1446.8045 2039.1184,1448.4866 2042.2649,1453.9204 C2046.1648,1447.3361 2052.8433,1448.8505 2055.8279,1454.9027 C2064.7449,1458.1055 2067.1265,1464.7947 2059.6247,1471.7072 C2064.2086,1478.3118 2064.0934,1482.7677 2055.2849,1485.0001 C2053.8835,1491.2002 2048.5611,1493.5012 2043.9916,1488.0784 C2039.9052,1495.6347 2035.0979,1496.0966 2029.1499,1490.1201 C2024.4954,1495.0934 2019.2369,1493.3449 2016.7625,1487.6004 C2012.2673,1493.3286 2007.1084,1493.2924 2003.9474,1486.2605 C1994.7214,1485.4137 1991.7211,1479.1817 1996.9525,1471.4888 C1990.8782,1462.9565 1992.8778,1457.4573 2003.0139,1454.8196 " fill="#F1F1F1" style="stroke:#181818;stroke-width:0.5;"/><text fill="#000000" font-family="DejaVu Sans" font-size="14" lengthAdjust="spacing" textLength="37.96" x="2010" y="1474.4482">SMTP</text></g><!--link MIC to AT--><g id="link_MIC_AT"><path d="M704,274.2431 C704,295.6931 704,317.8331 704,337.1431 " fill="none" id="MIC-to-AT" style="stroke:#3B4A5A;stroke-width:1.0;"/><polygon fill="#3B4A5A" points="704,343.1431,708,334.1431,704,338.1431,700,334.1431,704,343.1431" style="stroke:#3B4A5A;stroke-width:1.0;"/></g><!--link BTN to BT--><g id="link_BTN_BT"><path d="M455,150.1031 C455,170.1031 455,193.3731 455,213.3531 " fill="none" id="BTN-to-BT" style="stroke:#3B4A5A;stroke-width:1.0;"/><polygon fill="#3B4A5A" points="455,219.3531,459,210.3531,455,214.3531,451,210.3531,455,219.3531" style="stroke:#3B4A5A;stroke-width:1.0;"/></g><!--link BT to UI--><g id="link_BT_UI"><path d="M455,265.5431 C455,284.9131 455,307.2531 455,328.8031 " fill="none" id="BT-to-UI" style="stroke:#3B4A5A;stroke-width:1.0;"/><polygon fill="#3B4A5A" points="455,334.8031,459,325.8031,455,329.8031,451,325.8031,455,334.8031" style="stroke:#3B4A5A;stroke-width:1.0;"/></g><!--link AT to LT--><g id="link_AT_LT"><path d="M699.34,389.6231 C694.49,412.7131 688.0953,443.1717 682.6653,468.9817 " fill="none" id="AT-to-LT" style="stroke:#3B4A5A;stroke-width:1.0;"/><polygon fill="#3B4A5A" points="681.43,474.8531,687.1972,466.8694,682.4594,469.9602,679.3686,465.2224,681.43,474.8531" style="stroke:#3B4A5A;stroke-width:1.0;"/><text fill="#000000" font-family="DejaVu Sans" font-size="13" lengthAdjust="spacing" textLength="46.4268" x="693" y="441.02">TX ring</text></g><!--link UI to LT--><g id="link_UI_LT"><path d="M503.83,398.0831 C540.28,420.9531 584.8075,448.8744 621.2275,471.7244 " fill="none" id="UI-to-LT" style="stroke:#3B4A5A;stroke-width:1.0;"/><polygon fill="#3B4A5A" points="626.31,474.9131,620.8121,466.7416,622.0746,472.2558,616.5604,473.5183,626.31,474.9131" style="stroke:#3B4A5A;stroke-width:1.0;"/><text fill="#000000" font-family="DejaVu Sans" font-size="13" lengthAdjust="spacing" textLength="73.3789" x="580" y="441.02">events ring</text></g><!--link UI to TFT--><g id="link_UI_TFT"><path d="M455,398.0831 C455,420.9531 455,446.0631 455,468.9131 " fill="none" id="UI-to-TFT" style="stroke:#3B4A5A;stroke-width:1.0;"/><polygon fill="#3B4A5A" points="455,474.9131,459,465.9131,455,469.9131,451,465.9131,455,474.9131" style="stroke:#3B4A5A;stroke-width:1.0;"/></g><!--link LINK to APP--><g id="link_LINK_APP"><path d="M675,721.1231 C675,746.5231 675,776.4331 675,801.8231 " fill="none" id="LINK-to-APP" style="stroke:#3B4A5A;stroke-width:1.0;"/><polygon fill="#3B4A5A" points="675,807.8231,679,798.8231,675,802.8231,671,798.8231,675,807.8231" style="stroke:#3B4A5A;stroke-width:1.0;"/></g><!--link APP to SEG--><g id="link_APP_SEG"><path d="M692.35,870.9831 C714.18,909.3731 748.1559,969.1464 767.4459,1003.0964 " fill="none" id="APP-to-SEG" style="stroke:#3B4A5A;stroke-width:1.0;"/><polygon fill="#3B4A5A" points="770.41,1008.3131,769.4417,998.512,767.9399,1003.9659,762.4861,1002.4641,770.41,1008.3131" style="stroke:#3B4A5A;stroke-width:1.0;"/></g><!--link APP to TR--><g id="link_APP_TR"><path d="M726.73,870.9831 C786.73,906.3831 879.9026,961.3539 939.9626,996.7939 " fill="none" id="APP-to-TR" style="stroke:#3B4A5A;stroke-width:1.0;"/><polygon fill="#3B4A5A" points="945.13,999.8431,939.4116,991.8244,940.8238,997.3021,935.346,998.7143,945.13,999.8431" style="stroke:#3B4A5A;stroke-width:1.0;"/></g><!--link APP to SPK--><g id="link_APP_SPK"><path d="M661.18,870.9831 C645.18,906.3331 621.4434,958.7667 605.4034,994.2167 " fill="none" id="APP-to-SPK" style="stroke:#3B4A5A;stroke-width:1.0;"/><polygon fill="#3B4A5A" points="602.93,999.6831,610.2844,993.1324,604.9912,995.1277,602.9958,989.8345,602.93,999.6831" style="stroke:#3B4A5A;stroke-width:1.0;"/></g><!--link APP to FS--><g id="link_APP_FS"><path d="M620.05,870.9831 C567.28,900.3031 491.825,963.2194 429.415,997.8894 " fill="none" id="APP-to-FS" style="stroke:#3B4A5A;stroke-width:1.0;"/><polygon fill="#3B4A5A" points="424.17,1000.8031,433.98,999.9292,428.5409,998.375,430.0951,992.9359,424.17,1000.8031" style="stroke:#3B4A5A;stroke-width:1.0;"/><text fill="#000000" font-family="DejaVu Sans" font-size="13" lengthAdjust="spacing" textLength="39.457" x="556" y="931.02">writes</text></g><!--link BR to FS--><g id="link_BR_FS"><path d="M333,870.9831 C333,900.2431 333,959.9731 333,994.6131 " fill="none" id="BR-to-FS" style="stroke:#3B4A5A;stroke-width:1.0;"/><polygon fill="#3B4A5A" points="333,1000.6131,337,991.6131,333,995.6131,329,991.6131,333,1000.6131" style="stroke:#3B4A5A;stroke-width:1.0;"/><text fill="#000000" font-family="DejaVu Sans" font-size="13" lengthAdjust="spacing" textLength="36.334" x="334" y="931.02">reads</text></g><!--link BR to TOK--><g id="link_BR_TOK"><path d="M296.37,870.9831 C251.81,908.1131 181.9894,966.2921 140.2994,1001.0321 " fill="none" id="BR-to-TOK" style="stroke:#3B4A5A;stroke-width:1.0;"/><polygon fill="#3B4A5A" points="135.69,1004.8731,145.1648,1002.1846,139.5312,1001.6723,140.0435,996.0387,135.69,1004.8731" style="stroke:#3B4A5A;stroke-width:1.0;"/></g><!--link API to RT--><g id="link_API_RT"><path d="M1310.08,1054.6331 C1309.06,1079.0931 1307.6598,1112.5983 1306.5198,1139.9583 " fill="none" id="API-to-RT" style="stroke:#3B4A5A;stroke-width:1.0;"/><polygon fill="#3B4A5A" points="1306.27,1145.9531,1310.6412,1137.1274,1306.4782,1140.9575,1302.6481,1136.7944,1306.27,1145.9531" style="stroke:#3B4A5A;stroke-width:1.0;"/></g><!--link RT to SV--><g id="link_RT_SV"><path d="M1358.98,1209.0931 C1390.98,1227.2631 1426.6122,1247.4909 1460.8022,1266.9009 " fill="none" id="RT-to-SV" style="stroke:#3B4A5A;stroke-width:1.0;"/><polygon fill="#3B4A5A" points="1466.02,1269.8631,1460.1681,1261.9413,1461.6718,1267.3946,1456.2185,1268.8984,1466.02,1269.8631" style="stroke:#3B4A5A;stroke-width:1.0;"/></g><!--link SV to DB--><g id="link_SV_DB"><path d="M1468.44,1349.1031 C1421.8,1376.6031 1365.1989,1409.9764 1322.2089,1435.3164 " fill="none" id="SV-to-DB" style="stroke:#3B4A5A;stroke-width:1.0;"/><polygon fill="#3B4A5A" points="1317.04,1438.3631,1326.8245,1437.2389,1321.3474,1435.8242,1322.7622,1430.3471,1317.04,1438.3631" style="stroke:#3B4A5A;stroke-width:1.0;"/></g><!--link SV to AUD--><g id="link_SV_AUD"><path d="M1534.49,1349.1031 C1534.78,1372.3131 1535.0847,1416.8636 1535.3847,1440.7536 " fill="none" id="SV-to-AUD" style="stroke:#3B4A5A;stroke-width:1.0;"/><polygon fill="#3B4A5A" points="1535.46,1446.7531,1539.3467,1437.7036,1535.3972,1441.7535,1531.3473,1437.8041,1535.46,1446.7531" style="stroke:#3B4A5A;stroke-width:1.0;"/></g><!--link API to SPA--><g id="link_API_SPA"><path d="M1350.92,1054.4831 C1395.19,1078.9031 1461.6467,1115.5643 1511.3367,1142.9843 " fill="none" id="API-to-SPA" style="stroke:#3B4A5A;stroke-width:1.0;"/><polygon fill="#3B4A5A" points="1516.59,1145.8831,1510.6427,1138.0327,1512.2123,1143.4674,1506.7776,1145.037,1516.59,1145.8831" style="stroke:#3B4A5A;stroke-width:1.0;"/></g><!--link LT to LINK--><g id="link_LT_LINK"><path d="M675,544.1531 C675,577.5431 675,618.5731 675,651.9031 " fill="none" id="LT-LINK" style="stroke:#3B4A5A;stroke-width:1.0;"/><polygon fill="#3B4A5A" points="675,538.1531,671,547.1531,675,543.1531,679,547.1531,675,538.1531" style="stroke:#3B4A5A;stroke-width:1.0;"/><polygon fill="#3B4A5A" points="675,657.9031,679,648.9031,675,652.9031,671,648.9031,675,657.9031" style="stroke:#3B4A5A;stroke-width:1.0;"/><text fill="#000000" font-family="DejaVu Sans" font-size="13" lengthAdjust="spacing" textLength="98.4204" x="747.1541" y="583.02">USB CDC serial</text><text fill="#000000" font-family="DejaVu Sans" font-size="13" lengthAdjust="spacing" textLength="240.7285" x="676" y="598.1528">binary frames (AA 55 ...) / ASCII lines</text></g><!--link BR to API--><g id="link_BR_API"><path d="M425.65,865.2831 C466.86,875.6231 516.11,887.0431 561,894.9531 C592.5,900.5031 1101.96,952.7131 1133,960.4531 C1179.07,971.9431 1223.7475,989.973 1259.0275,1005.833 " fill="none" id="BR-to-API" style="stroke:#3B4A5A;stroke-width:1.0;"/><polygon fill="#3B4A5A" points="1264.5,1008.2931,1257.9314,1000.9546,1259.9396,1006.243,1254.6512,1008.2512,1264.5,1008.2931" style="stroke:#3B4A5A;stroke-width:1.0;"/><text fill="#000000" font-family="DejaVu Sans" font-size="13" lengthAdjust="spacing" textLength="173.8179" x="1088.6934" y="916.02">HTTPS + Bearer mt_ token</text><text fill="#000000" font-family="DejaVu Sans" font-size="13" lengthAdjust="spacing" textLength="196.041" x="1077.5818" y="931.1528">POST /api/sessions (multipart)</text><text fill="#000000" font-family="DejaVu Sans" font-size="13" lengthAdjust="spacing" textLength="241.2046" x="1055" y="946.2856">POST /api/bridge/heartbeat every 5 s</text></g><!--link WEB to API--><g id="link_WEB_API"><path d="M1315.2,870.9831 C1314.19,909.3731 1312.639,968.3652 1311.739,1002.3152 " fill="none" id="WEB-to-API" style="stroke:#3B4A5A;stroke-width:1.0;"/><polygon fill="#3B4A5A" points="1311.58,1008.3131,1315.8171,999.4223,1311.7125,1003.3149,1307.8199,999.2103,1311.58,1008.3131" style="stroke:#3B4A5A;stroke-width:1.0;"/><text fill="#000000" font-family="DejaVu Sans" font-size="13" lengthAdjust="spacing" textLength="155.3525" x="1341.1174" y="923.52">HTTPS + session cookie</text><text fill="#000000" font-family="DejaVu Sans" font-size="13" lengthAdjust="spacing" textLength="207.5874" x="1315" y="938.6528">+ X-Requested-With: mindtrace</text></g><!--link SV to DS--><g id="link_SV_DS"><path d="M1681,1321.3831 C1770.42,1330.8131 1886.07,1348.0231 1985,1378.9531 C2036.93,1395.1831 2087.0348,1422.3866 2121.7248,1443.1966 " fill="none" id="SV-to-DS" style="stroke:#3B4A5A;stroke-width:1.0;"/><polygon fill="#3B4A5A" points="2126.87,1446.2831,2121.2099,1438.2232,2122.5823,1443.711,2117.0945,1445.0835,2126.87,1446.2831" style="stroke:#3B4A5A;stroke-width:1.0;"/><text fill="#000000" font-family="DejaVu Sans" font-size="13" lengthAdjust="spacing" textLength="158.2026" x="2026" y="1392.02">chat completions (JSON)</text></g><!--link SV to LITC--><g id="link_SV_LITC"><path d="M1608.37,1349.1031 C1660.92,1376.4231 1725.0861,1409.7662 1773.8061,1435.0862 " fill="none" id="SV-to-LITC" style="stroke:#3B4A5A;stroke-width:1.0;"/><polygon fill="#3B4A5A" points="1779.13,1437.8531,1772.9887,1430.1535,1774.6934,1435.5474,1769.2995,1437.2521,1779.13,1437.8531" style="stroke:#3B4A5A;stroke-width:1.0;"/><text fill="#000000" font-family="DejaVu Sans" font-size="13" lengthAdjust="spacing" textLength="85.4141" x="1696" y="1392.02">paper search</text></g><!--link SV to SMTP--><g id="link_SV_SMTP"><path d="M1681.07,1332.3931 C1770.13,1349.5931 1884.09,1378.7431 1977,1425.9531 C1987.5,1431.2831 1993.2578,1435.1245 2001.8878,1442.5345 " fill="none" id="SV-to-SMTP" style="stroke:#3B4A5A;stroke-width:1.0;"/><polygon fill="#3B4A5A" points="2006.44,1446.4431,2002.2175,1437.5453,2002.6465,1443.1859,1997.0059,1443.6149,2006.44,1446.4431" style="stroke:#3B4A5A;stroke-width:1.0;"/><text fill="#000000" font-family="DejaVu Sans" font-size="13" lengthAdjust="spacing" textLength="67.1074" x="1909" y="1392.02">reset links</text></g><!--SRC=[TLPTRzis57tthxZBovpLbfgc3ReW223RIQlESJH9-HWGmA0bEkPCaIf9EVM6_VTTaf9JkzjB8fBtY-UUU-YVc2XuKrAOQxFbD61DnNk66KxXXeaoLwIWC8G9hRdSLbGO264igreA-prXv5cH2lf4mw9Xt1ptUa9YjADNvv9kM46VHFygIqxV3RDJc9sSfHy7i6IgUY6AmhlWRV3s-0WmoEJg7lxk0HIx54Vnx2Pv__u4AbPWaFXTDe2JCrX__ijxtCJZ0_jf_Eifskj2KIhGHSkbSNco9FO- -NM-xpDgZ942-f-I-FRap1kDyjc-4MbA9dEYrz0l98PhIuuEOYrSh1_jHWTsd8drdjMJa89lqGJnCx8fLamymrqsSjxJGsyfw_untCMj-mcw-njhY2VJgp2z6eVPtSrDbFuH1a7WWjp560G1W-7mqjUDbtIBaL-uRsSL-Uzf3kUGFuB2Md0Nq-rswGOBqGSd5jb_EWwaL5EYYXLLFslWf3QoXlu34aE-Q8_9D4eEsrtXkR74cNEc3HLK1VKMkxWZL5JNBV19ikywSKoR8gxm1cebZImaHzTwgwbYXBSvuzbl-tuPVRRCfigTPrUVzeynguMMBQZ2O55J4ZMCiXG7OKcmGZLyMJ5TKzLoApq8NbEofkf1ghNplvtD7a7xJQWGfxQiBB5LBIKlSVz8KwsP53fy4XSbCVGoR7U2FxL4KWjfg0v_2Lx81WUfuNpUdTkT9w5eBPK9LgRY0mWusr3dw39TP_-7-4Anyfbwl5V6rDzQvjehBHbAmb7WJUP6hkriTKjjiCRN3FcjlOi5sZFDDGh_kfN7jrivk7P73eDkTPqXoruKmvjQSgQlcugIyhizcsv7keGJivIg0kpv1g7iDqWAgGIsQoABTTUcBFr1QAwncr4I0wcHfXLX0e7ec1RlcwQomSRhSo2DMGs0ViFsCyiXZTXtlHk0HsS0Xf8AbnNJXOkNveS4L9Qv6A_1glLXGFlV1tmDpOHcpojtJDW0EAAaY6dKQpPjf28sErw5Tzo-nyJ89x8W6h7AVf-Y7yvaD4NviFlXZWo1_cg3ddfP7dt7JMVdn31iBkGBJkXbUD5MDcVbPTZHqpqZdg9sOpwRjUmy9Am7-Mvo038bXK5EHD1VAedpASgmH4smIcTxMy9Y2stJsX6A77sy53cGKozZxjxPlVjsTsc_VSxEm_hlU3HIg58jRAFquP0ilhWtbeg56NvjgB93mqu-2Y0gf6803tG1EFoqM4792XmGlAodqyFLoEOfk6nAgrgqpYXTGtUDITOTtTPKH9n-G-vcj2B8WWAoOYKvKO0e4_N8DlOzLb9hHPUjlENZpZ-xoHEF37xqUYZR5qw-xM2UswS5nfCnU75y4Wk64RUmn0UTQkX74Npu0FXq76EAA1l7CR9Cu2osKsTHEuVFUPvaYCC8bTuAcfb3gmt9RPP3I6hMIHV6h1fkM4sKxU7hkH-JS8KXp88IOvyMBEG3w1v2zH_9se3O3xbc-DFY3JmEKufDG3akXm_ChCvXH-HUrtUh7CKAmzisScfyIL-oszbnPsF1GwkQuFY1Vxow8mkXanvDZGLYhVy5]--></g></svg>