<svg xmlns="http://www.w3.org/2000/svg" xmlns:xlink="http://www.w3.org/1999/xlink" contentStyleType="text/css" height="706px" preserveAspectRatio="none" style="width:1749px;height:706px;background:#FFFFFF;" version="1.1" viewBox="0 0 1749 706" width="1749px" zoomAndPan="magnify"><title>Sequence - live "device connected" card on the platform</title><defs/><g><text fill="#000000" font-family="DejaVu Sans" font-size="18" font-weight="bold" lengthAdjust="spacing" textLength="573.5479" x="589.7046" y="31.708">Sequence - live "device connected" card on the platform</text><rect fill="none" height="46.2656" rx="4" ry="4" style="stroke:#000000;stroke-width:1.5;" width="292.0991" x="10" y="142.5469"/><rect fill="none" height="61.3984" rx="4" ry="4" style="stroke:#000000;stroke-width:1.5;" width="388.3608" x="167.8228" y="202.8125"/><rect fill="none" height="125.6641" rx="4" ry="4" style="stroke:#000000;stroke-width:1.5;" width="900.0034" x="392.1494" y="278.2109"/><rect fill="none" height="176.9297" rx="4" ry="4" style="stroke:#000000;stroke-width:1.5;" width="770.7959" x="973.1611" y="417.875"/><line style="stroke:#8A99A8;stroke-width:0.5;stroke-dasharray:5.0,5.0;" x1="74" x2="74" y1="125.5469" y2="611.8047"/><line style="stroke:#8A99A8;stroke-width:0.5;stroke-dasharray:5.0,5.0;" x1="234.8228" x2="234.8228" y1="125.5469" y2="611.8047"/><line style="stroke:#8A99A8;stroke-width:0.5;stroke-dasharray:5.0,5.0;" x1="474.1494" x2="474.1494" y1="125.5469" y2="611.8047"/><line style="stroke:#8A99A8;stroke-width:0.5;stroke-dasharray:5.0,5.0;" x1="624.1836" x2="624.1836" y1="125.5469" y2="611.8047"/><line style="stroke:#8A99A8;stroke-width:0.5;stroke-dasharray:5.0,5.0;" x1="833.5874" x2="833.5874" y1="125.5469" y2="611.8047"/><line style="stroke:#8A99A8;stroke-width:0.5;stroke-dasharray:5.0,5.0;" x1="1078.1611" x2="1078.1611" y1="125.5469" y2="611.8047"/><line style="stroke:#8A99A8;stroke-width:0.5;stroke-dasharray:5.0,5.0;" x1="1269.3398" x2="1269.3398" y1="125.5469" y2="611.8047"/><line style="stroke:#8A99A8;stroke-width:0.5;stroke-dasharray:5.0,5.0;" x1="1543.4756" x2="1543.4756" y1="125.5469" y2="611.8047"/><rect fill="#F4F8FB" height="30.2969" rx="4" ry="4" style="stroke:#181818;stroke-width:0.5;" width="108.4248" x="20" y="94.25"/><text fill="#000000" font-family="DejaVu Sans" font-size="14" lengthAdjust="spacing" textLength="94.4248" x="27" y="114.2451">ESP32 device</text><rect fill="#F4F8FB" height="30.2969" rx="4" ry="4" style="stroke:#181818;stroke-width:0.5;" width="108.4248" x="20" y="610.8047"/><text fill="#000000" font-family="DejaVu Sans" font-size="14" lengthAdjust="spacing" textLength="94.4248" x="27" y="630.7998">ESP32 device</text><rect fill="#F4F8FB" height="30.2969" rx="4" ry="4" style="stroke:#181818;stroke-width:0.5;" width="114.2764" x="177.8228" y="94.25"/><text fill="#000000" font-family="DejaVu Sans" font-size="14" lengthAdjust="spacing" textLength="100.2764" x="184.8228" y="114.2451">MindTraceApp</text><rect fill="#F4F8FB" height="30.2969" rx="4" ry="4" style="stroke:#181818;stroke-width:0.5;" width="114.2764" x="177.8228" y="610.8047"/><text fill="#000000" font-family="DejaVu Sans" font-size="14" lengthAdjust="spacing" textLength="100.2764" x="184.8228" y="630.7998">MindTraceApp</text><rect fill="#E2E2F0" height="30.2969" rx="4" ry="4" style="stroke:#181818;stroke-width:0.5;" width="140.0342" x="406.1494" y="90.25"/><rect fill="#E2E2F0" height="30.2969" rx="4" ry="4" style="stroke:#181818;stroke-width:0.5;" width="140.0342" x="402.1494" y="94.25"/><text fill="#000000" font-family="DejaVu Sans" font-size="14" lengthAdjust="spacing" textLength="126.0342" x="409.1494" y="114.2451">sessions/.live.json</text><rect fill="#E2E2F0" height="30.2969" rx="4" ry="4" style="stroke:#181818;stroke-width:0.5;" width="140.0342" x="406.1494" y="610.8047"/><rect fill="#E2E2F0" height="30.2969" rx="4" ry="4" style="stroke:#181818;stroke-width:0.5;" width="140.0342" x="402.1494" y="614.8047"/><text fill="#000000" font-family="DejaVu Sans" font-size="14" lengthAdjust="spacing" textLength="126.0342" x="409.1494" y="634.7998">sessions/.live.json</text><rect fill="#F4F8FB" height="46.5938" rx="4" ry="4" style="stroke:#181818;stroke-width:0.5;" width="137.3408" x="556.1836" y="77.9531"/><text fill="#000000" font-family="DejaVu Sans" font-size="14" lengthAdjust="spacing" textLength="123.3408" x="563.1836" y="97.9482">mindtrace_bridge</text><text fill="#000000" font-family="DejaVu Sans" font-size="14" lengthAdjust="spacing" textLength="52.1924" x="598.7578" y="114.2451">--watch</text><rect fill="#F4F8FB" height="46.5938" rx="4" ry="4" style="stroke:#181818;stroke-width:0.5;" width="137.3408" x="556.1836" y="610.8047"/><text fill="#000000" font-family="DejaVu Sans" font-size="14" lengthAdjust="spacing" textLength="123.3408" x="563.1836" y="630.7998">mindtrace_bridge</text><text fill="#000000" font-family="DejaVu Sans" font-size="14" lengthAdjust="spacing" textLength="52.1924" x="598.7578" y="647.0967">--watch</text><rect fill="#F4F8FB" height="30.2969" rx="4" ry="4" style="stroke:#181818;stroke-width:0.5;" width="204.6543" x="731.5874" y="94.25"/><text fill="#000000" font-family="DejaVu Sans" font-size="14" lengthAdjust="spacing" textLength="190.6543" x="738.5874" y="114.2451">POST /api/bridge/heartbeat</text><rect fill="#F4F8FB" height="30.2969" rx="4" ry="4" style="stroke:#181818;stroke-width:0.5;" width="204.6543" x="731.5874" y="610.8047"/><text fill="#000000" font-family="DejaVu Sans" font-size="14" lengthAdjust="spacing" textLength="190.6543" x="738.5874" y="630.7998">POST /api/bridge/heartbeat</text><text fill="#000000" font-family="DejaVu Sans" font-size="14" lengthAdjust="spacing" textLength="75.2979" x="1038.1016" y="105.9482">api_tokens</text><text fill="#000000" font-family="DejaVu Sans" font-size="14" lengthAdjust="spacing" textLength="185.1787" x="983.1611" y="122.2451">(last_seen_at, status_json)</text><path d="M1060.7505,56.9531 C1060.7505,46.9531 1078.7505,46.9531 1078.7505,46.9531 C1078.7505,46.9531 1096.7505,46.9531 1096.7505,56.9531 L1096.7505,82.9531 C1096.7505,92.9531 1078.7505,92.9531 1078.7505,92.9531 C1078.7505,92.9531 1060.7505,92.9531 1060.7505,82.9531 L1060.7505,56.9531 " fill="#FDF3E7" style="stroke:#181818;stroke-width:1.5;"/><path d="M1060.7505,56.9531 C1060.7505,66.9531 1078.7505,66.9531 1078.7505,66.9531 C1078.7505,66.9531 1096.7505,66.9531 1096.7505,56.9531 " fill="none" style="stroke:#181818;stroke-width:1.5;"/><text fill="#000000" font-family="DejaVu Sans" font-size="14" lengthAdjust="spacing" textLength="75.2979" x="1038.1016" y="623.7998">api_tokens</text><text fill="#000000" font-family="DejaVu Sans" font-size="14" lengthAdjust="spacing" textLength="185.1787" x="983.1611" y="640.0967">(last_seen_at, status_json)</text><path d="M1060.7505,653.3984 C1060.7505,643.3984 1078.7505,643.3984 1078.7505,643.3984 C1078.7505,643.3984 1096.7505,643.3984 1096.7505,653.3984 L1096.7505,679.3984 C1096.7505,689.3984 1078.7505,689.3984 1078.7505,689.3984 C1078.7505,689.3984 1060.7505,689.3984 1060.7505,679.3984 L1060.7505,653.3984 " fill="#FDF3E7" style="stroke:#181818;stroke-width:1.5;"/><path d="M1060.7505,653.3984 C1060.7505,663.3984 1078.7505,663.3984 1078.7505,663.3984 C1078.7505,663.3984 1096.7505,663.3984 1096.7505,653.3984 " fill="none" style="stroke:#181818;stroke-width:1.5;"/><rect fill="#F4F8FB" height="30.2969" rx="4" ry="4" style="stroke:#181818;stroke-width:0.5;" width="170.1396" x="1184.3398" y="94.25"/><text fill="#000000" font-family="DejaVu Sans" font-size="14" lengthAdjust="spacing" textLength="156.1396" x="1191.3398" y="114.2451">GET /api/bridge/status</text><rect fill="#F4F8FB" height="30.2969" rx="4" ry="4" style="stroke:#181818;stroke-width:0.5;" width="170.1396" x="1184.3398" y="610.8047"/><text fill="#000000" font-family="DejaVu Sans" font-size="14" lengthAdjust="spacing" textLength="156.1396" x="1191.3398" y="630.7998">GET /api/bridge/status</text><rect fill="#F4F8FB" height="46.5938" rx="4" ry="4" style="stroke:#181818;stroke-width:0.5;" width="139.4873" x="1474.4756" y="77.9531"/><text fill="#000000" font-family="DejaVu Sans" font-size="14" lengthAdjust="spacing" textLength="125.4873" x="1481.4756" y="97.9482">DeviceStatusCard</text><text fill="#000000" font-family="DejaVu Sans" font-size="14" lengthAdjust="spacing" textLength="117.5576" x="1485.4404" y="114.2451">(React, polls 5 s)</text><rect fill="#F4F8FB" height="46.5938" rx="4" ry="4" style="stroke:#181818;stroke-width:0.5;" width="139.4873" x="1474.4756" y="610.8047"/><text fill="#000000" font-family="DejaVu Sans" font-size="14" lengthAdjust="spacing" textLength="125.4873" x="1481.4756" y="630.7998">DeviceStatusCard</text><text fill="#000000" font-family="DejaVu Sans" font-size="14" lengthAdjust="spacing" textLength="117.5576" x="1485.4404" y="647.0967">(React, polls 5 s)</text><path d="M14,142.5469 L86.624,142.5469 L86.624,149.6797 L76.624,159.6797 L10,159.6797 L10,146.5469 A4,4 0 0 1 14,142.5469 " fill="#EEEEEE" style="stroke:#000000;stroke-width:1.5;"/><rect fill="none" height="46.2656" rx="4" ry="4" style="stroke:#000000;stroke-width:1.5;" width="292.0991" x="10" y="142.5469"/><text fill="#000000" font-family="DejaVu Sans" font-size="13" font-weight="bold" lengthAdjust="spacing" textLength="31.624" x="25" y="155.6138">loop</text><text fill="#000000" font-family="DejaVu Sans" font-size="11" font-weight="bold" lengthAdjust="spacing" textLength="66.6016" x="101.624" y="154.7573">[every 1 s]</text><polygon fill="#3B4A5A" points="222.9609,176.8125,232.9609,180.8125,222.9609,184.8125,226.9609,180.8125" style="stroke:#3B4A5A;stroke-width:1.0;"/><line style="stroke:#3B4A5A;stroke-width:1.0;" x1="74.2124" x2="228.9609" y1="180.8125" y2="180.8125"/><text fill="#000000" font-family="DejaVu Sans" font-size="13" font-weight="bold" lengthAdjust="spacing" textLength="9.0454" x="81.2124" y="175.7466">1</text><text fill="#000000" font-family="DejaVu Sans" font-size="13" lengthAdjust="spacing" textLength="123.7031" x="94.2578" y="175.7466">EVENT HB (link up)</text><path d="M171.8228,202.8125 L244.4468,202.8125 L244.4468,209.9453 L234.4468,219.9453 L167.8228,219.9453 L167.8228,206.8125 A4,4 0 0 1 171.8228,202.8125 " fill="#EEEEEE" style="stroke:#000000;stroke-width:1.5;"/><rect fill="none" height="61.3984" rx="4" ry="4" style="stroke:#000000;stroke-width:1.5;" width="388.3608" x="167.8228" y="202.8125"/><text fill="#000000" font-family="DejaVu Sans" font-size="13" font-weight="bold" lengthAdjust="spacing" textLength="31.624" x="182.8228" y="215.8794">loop</text><text fill="#000000" font-family="DejaVu Sans" font-size="11" font-weight="bold" lengthAdjust="spacing" textLength="235.8984" x="259.4468" y="215.0229">[every 2 s (LIVE_STATUS_EVERY_SEC)]</text><polygon fill="#3B4A5A" points="462.1665,252.2109,472.1665,256.2109,462.1665,260.2109,466.1665,256.2109" style="stroke:#3B4A5A;stroke-width:1.0;"/><line style="stroke:#3B4A5A;stroke-width:1.0;" x1="234.9609" x2="468.1665" y1="256.2109" y2="256.2109"/><text fill="#000000" font-family="DejaVu Sans" font-size="13" font-weight="bold" lengthAdjust="spacing" textLength="9.0454" x="241.9609" y="243.5786">2</text><text fill="#000000" font-family="DejaVu Sans" font-size="13" lengthAdjust="spacing" textLength="202.1602" x="255.0063" y="236.0122">write_live(): device_connected,</text><text fill="#000000" font-family="DejaVu Sans" font-size="13" lengthAdjust="spacing" textLength="174.4971" x="255.0063" y="251.145">recording, levels, firmware</text><path d="M396.1494,278.2109 L468.7734,278.2109 L468.7734,285.3438 L458.7734,295.3438 L392.1494,295.3438 L392.1494,282.2109 A4,4 0 0 1 396.1494,278.2109 " fill="#EEEEEE" style="stroke:#000000;stroke-width:1.5;"/><rect fill="none" height="125.6641" rx="4" ry="4" style="stroke:#000000;stroke-width:1.5;" width="900.0034" x="392.1494" y="278.2109"/><text fill="#000000" font-family="DejaVu Sans" font-size="13" font-weight="bold" lengthAdjust="spacing" textLength="31.624" x="407.1494" y="291.2778">loop</text><text fill="#000000" font-family="DejaVu Sans" font-size="11" font-weight="bold" lengthAdjust="spacing" textLength="66.6016" x="483.7734" y="290.4214">[every 5 s]</text><polygon fill="#3B4A5A" points="485.1665,312.4766,475.1665,316.4766,485.1665,320.4766,481.1665,316.4766" style="stroke:#3B4A5A;stroke-width:1.0;"/><line style="stroke:#3B4A5A;stroke-width:1.0;" x1="479.1665" x2="623.854" y1="316.4766" y2="316.4766"/><text fill="#000000" font-family="DejaVu Sans" font-size="13" font-weight="bold" lengthAdjust="spacing" textLength="9.0454" x="491.1665" y="311.4106">3</text><text fill="#000000" font-family="DejaVu Sans" font-size="13" lengthAdjust="spacing" textLength="69.1196" x="504.2119" y="311.4106">read_live()</text><polygon fill="#3B4A5A" points="821.9146,341.6094,831.9146,345.6094,821.9146,349.6094,825.9146,345.6094" style="stroke:#3B4A5A;stroke-width:1.0;"/><line style="stroke:#3B4A5A;stroke-width:1.0;" x1="624.854" x2="827.9146" y1="345.6094" y2="345.6094"/><text fill="#000000" font-family="DejaVu Sans" font-size="13" font-weight="bold" lengthAdjust="spacing" textLength="9.0454" x="631.854" y="340.5435">4</text><text fill="#000000" font-family="DejaVu Sans" font-size="13" lengthAdjust="spacing" textLength="172.0151" x="644.8994" y="340.5435">Bearer mt_ token + status</text><polygon fill="#3B4A5A" points="1066.7505,381.3086,1076.7505,385.3086,1066.7505,389.3086,1070.7505,385.3086" style="stroke:#3B4A5A;stroke-width:1.0;"/><line style="stroke:#3B4A5A;stroke-width:1.0;" x1="833.9146" x2="1072.7505" y1="385.3086" y2="385.3086"/><text fill="#000000" font-family="DejaVu Sans" font-size="13" font-weight="bold" lengthAdjust="spacing" textLength="9.0454" x="840.9146" y="380.2427">5</text><text fill="#000000" font-family="DejaVu Sans" font-size="13" lengthAdjust="spacing" textLength="207.7905" x="853.96" y="380.2427">last_seen_at = now, status_json</text><path d="M1083,362.6094 L1083,394.6094 A4,4 0 0 0 1087,398.6094 L1272,398.6094 A4,4 0 0 0 1276,394.6094 L1276,368.6094 L1266,358.6094 L1087,358.6094 A4,4 0 0 0 1083,362.6094 " fill="#FFF8E1" style="stroke:#C9A227;stroke-width:0.5;"/><path d="M1266,358.6094 L1266,366.6094 A2,2 0 0 0 1268,368.6094 L1276,368.6094 L1266,358.6094 " fill="#FFF8E1" style="stroke:#C9A227;stroke-width:0.5;"/><text fill="#000000" font-family="DejaVu Sans" font-size="13" lengthAdjust="spacing" textLength="172.4023" x="1089" y="375.6763">a .live.json older than 15 s</text><text fill="#000000" font-family="DejaVu Sans" font-size="13" lengthAdjust="spacing" textLength="163.6743" x="1089" y="390.8091">is reported as listener off</text><path d="M977.1611,417.875 L1049.7852,417.875 L1049.7852,425.0078 L1039.7852,435.0078 L973.1611,435.0078 L973.1611,421.875 A4,4 0 0 1 977.1611,417.875 " fill="#EEEEEE" style="stroke:#000000;stroke-width:1.5;"/><rect fill="none" height="176.9297" rx="4" ry="4" style="stroke:#000000;stroke-width:1.5;" width="770.7959" x="973.1611" y="417.875"/><text fill="#000000" font-family="DejaVu Sans" font-size="13" font-weight="bold" lengthAdjust="spacing" textLength="31.624" x="988.1611" y="430.9419">loop</text><text fill="#000000" font-family="DejaVu Sans" font-size="11" font-weight="bold" lengthAdjust="spacing" textLength="66.6016" x="1064.7852" y="430.0854">[every 5 s]</text><polygon fill="#3B4A5A" points="1280.4097,452.1406,1270.4097,456.1406,1280.4097,460.1406,1276.4097,456.1406" style="stroke:#3B4A5A;stroke-width:1.0;"/><line style="stroke:#3B4A5A;stroke-width:1.0;" x1="1274.4097" x2="1543.2192" y1="456.1406" y2="456.1406"/><text fill="#000000" font-family="DejaVu Sans" font-size="13" font-weight="bold" lengthAdjust="spacing" textLength="9.0454" x="1286.4097" y="451.0747">6</text><text fill="#000000" font-family="DejaVu Sans" font-size="13" lengthAdjust="spacing" textLength="52.3364" x="1299.4551" y="451.0747">(cookie)</text><polygon fill="#3B4A5A" points="1089.7505,481.2734,1079.7505,485.2734,1089.7505,489.2734,1085.7505,485.2734" style="stroke:#3B4A5A;stroke-width:1.0;"/><line style="stroke:#3B4A5A;stroke-width:1.0;" x1="1083.7505" x2="1268.4097" y1="485.2734" y2="485.2734"/><text fill="#000000" font-family="DejaVu Sans" font-size="13" font-weight="bold" lengthAdjust="spacing" textLength="9.0454" x="1095.7505" y="480.2075">7</text><text fill="#000000" font-family="DejaVu Sans" font-size="13" lengthAdjust="spacing" textLength="114.2769" x="1108.7959" y="480.2075">this user's tokens</text><polygon fill="#3B4A5A" points="1532.2192,540.6719,1542.2192,544.6719,1532.2192,548.6719,1536.2192,544.6719" style="stroke:#3B4A5A;stroke-width:1.0;"/><line style="stroke:#3B4A5A;stroke-width:1.0;stroke-dasharray:2.0,2.0;" x1="1269.4097" x2="1538.2192" y1="544.6719" y2="544.6719"/><text fill="#000000" font-family="DejaVu Sans" font-size="13" font-weight="bold" lengthAdjust="spacing" textLength="9.0454" x="1276.4097" y="524.4731">8</text><text fill="#000000" font-family="DejaVu Sans" font-size="13" lengthAdjust="spacing" textLength="194.0732" x="1289.4551" y="509.3403">linked, online (seen &lt;= 30 s),</text><text fill="#000000" font-family="DejaVu Sans" font-size="13" lengthAdjust="spacing" textLength="237.7642" x="1289.4551" y="524.4731">device_connected, recording, levels,</text><text fill="#000000" font-family="DejaVu Sans" font-size="13" lengthAdjust="spacing" textLength="181.6636" x="1289.4551" y="539.606">last_upload_at, computers[]</text><line style="stroke:#3B4A5A;stroke-width:1.0;" x1="1544.2192" x2="1586.2192" y1="573.8047" y2="573.8047"/><line style="stroke:#3B4A5A;stroke-width:1.0;" x1="1586.2192" x2="1586.2192" y1="573.8047" y2="586.8047"/><line style="stroke:#3B4A5A;stroke-width:1.0;" x1="1545.2192" x2="1586.2192" y1="586.8047" y2="586.8047"/><polygon fill="#3B4A5A" points="1555.2192,582.8047,1545.2192,586.8047,1555.2192,590.8047,1551.2192,586.8047" style="stroke:#3B4A5A;stroke-width:1.0;"/><text fill="#000000" font-family="DejaVu Sans" font-size="13" font-weight="bold" lengthAdjust="spacing" textLength="9.0454" x="1551.2192" y="568.7388">9</text><text fill="#000000" font-family="DejaVu Sans" font-size="13" lengthAdjust="spacing" textLength="167.6924" x="1564.2646" y="568.7388">state live / rec / warn / off</text><!--SRC=[RLDRRzem57xFhpZZPK63ihRg2redGK4h4jkgXbQQnXGPvr2yEiUPVGBglzzn0brfzvARFt-tuxmpf6rT8EI1dooUcBgq2Hks21d-gP4qGX-isI9q2jmQUTME23LZqG6jV06EW3S8bLMyThvCLCsEwdA5FgcKPwDDfOYXCyrkpi-W9Uc02Z0vNlzgg5XufN5KLStwAD7EMf4oZW9q0eOGdmOdqSx9x-2eWSsFQKgXuKYJhxmf7d19_VvEiTuquF4n-EPxje21gioW1GysACihLDoWhyT9eLYjL93uWihPFIA59QLM1Su38kMAUn1OSHtoQAdRHdkbysLwBDDkQA3PuXWwQGhA6i2Lz2jYjwYqg5JIHe0B2At6tIn9h7CLu1Rz4vn2I00cqFyC8nZ2z7xwRI418BM67g6kkWbIyNB36GH8vxFxQPujHekxB9Sjjp_oR7hL5Q9H99eBqSuRnZnMddQ7-_7bpsUWjoIFsld2q4CFh33Rq8EryULEUNmjUT5u71-eFQfYptpuB8Q7C9OXe8UISsWAXm_xXWLrtS0c4VPo1d09v7P7an0mEKRmvc730bVmx-20iuKey4OHd8gh9PaWTYhd9LCirvh0I09nw_N_KzpDeX4vFaD8jNEF1cC8UJ_OuurmrW7z-z362Fjr0SXcyI-3aGRb1v8dX3H6WK-NSFvHHYp5lkaQtbQzfAQ5kh9EkendKRkogXbz-FdhsMKZ5wl1zbSUH2Qvoen8RlkCVm40]--></g></svg>